<svg width="25" height="26" viewBox="0 0 25 26" fill="none" xmlns="http://www.w3.org/2000/svg">
<path d="M12.5007 7.78784C9.39526 7.78784 6.89038 10.2927 6.89038 13.3982C6.89038 16.5037 9.39526 19.0085 12.5007 19.0085C15.6062 19.0085 18.1111 16.5037 18.1111 13.3982C18.1111 10.2927 15.6062 7.78784 12.5007 7.78784ZM12.5007 17.0457C10.4939 17.0457 8.85327 15.4099 8.85327 13.3982C8.85327 11.3865 10.489 9.75073 12.5007 9.75073C14.5125 9.75073 16.1482 11.3865 16.1482 13.3982C16.1482 15.4099 14.5076 17.0457 12.5007 17.0457ZM19.6492 7.55835C19.6492 8.28589 19.0632 8.86694 18.3406 8.86694C17.613 8.86694 17.032 8.28101 17.032 7.55835C17.032 6.83569 17.6179 6.24976 18.3406 6.24976C19.0632 6.24976 19.6492 6.83569 19.6492 7.55835ZM23.365 8.88647C23.282 7.13354 22.8816 5.58081 21.5974 4.30151C20.3181 3.02222 18.7654 2.62183 17.0125 2.53394C15.2058 2.4314 9.79077 2.4314 7.98413 2.53394C6.23608 2.61694 4.68335 3.01733 3.39917 4.29663C2.11499 5.57593 1.71948 7.12866 1.63159 8.88159C1.52905 10.6882 1.52905 16.1033 1.63159 17.9099C1.7146 19.6628 2.11499 21.2156 3.39917 22.4949C4.68335 23.7742 6.2312 24.1746 7.98413 24.2625C9.79077 24.365 15.2058 24.365 17.0125 24.2625C18.7654 24.1794 20.3181 23.7791 21.5974 22.4949C22.8767 21.2156 23.2771 19.6628 23.365 17.9099C23.4675 16.1033 23.4675 10.6931 23.365 8.88647ZM21.031 19.8484C20.6501 20.8054 19.9128 21.5427 18.9509 21.9285C17.5105 22.4998 14.0925 22.3679 12.5007 22.3679C10.9089 22.3679 7.48608 22.4949 6.05054 21.9285C5.09351 21.5476 4.3562 20.8103 3.97046 19.8484C3.39917 18.408 3.53101 14.99 3.53101 13.3982C3.53101 11.8064 3.40405 8.38354 3.97046 6.948C4.35132 5.99097 5.08862 5.25366 6.05054 4.86792C7.49097 4.29663 10.9089 4.42847 12.5007 4.42847C14.0925 4.42847 17.5154 4.30151 18.9509 4.86792C19.908 5.24878 20.6453 5.98608 21.031 6.948C21.6023 8.38843 21.4705 11.8064 21.4705 13.3982C21.4705 14.99 21.6023 18.4128 21.031 19.8484Z" fill="black"/>
</svg>
